<svg width="21" height="20" viewBox="0 0 21 20" fill="none" xmlns="http://www.w3.org/2000/svg">
<path d="M8.44848 12.6924C7.11626 12.6924 5.98723 12.2295 5.06139 11.3038C4.1357 10.378 3.67285 9.24896 3.67285 7.91674C3.67285 6.58452 4.1357 5.45549 5.06139 4.52965C5.98723 3.60396 7.11626 3.14111 8.44848 3.14111C9.7807 3.14111 10.9097 3.60396 11.8356 4.52965C12.7613 5.45549 13.2241 6.58452 13.2241 7.91674C13.2241 8.49577 13.1215 9.05611 12.9164 9.59778C12.7113 10.1394 12.442 10.6026 12.1087 10.9872L17.0318 15.9103C17.1097 15.9883 17.1514 16.084 17.1568 16.1972C17.1621 16.3105 17.1204 16.4115 17.0318 16.5001C16.9431 16.5887 16.8447 16.633 16.7368 16.633C16.629 16.633 16.5308 16.5887 16.442 16.5001L11.5189 11.5769C11.1022 11.9317 10.6231 12.2063 10.0814 12.4007C9.53973 12.5951 8.99542 12.6924 8.44848 12.6924ZM8.44848 11.859C9.55417 11.859 10.4876 11.4784 11.2489 10.7172C12.0101 9.95604 12.3908 9.02257 12.3908 7.91674C12.3908 6.8109 12.0101 5.87743 11.2489 5.11632C10.4876 4.35507 9.55417 3.97445 8.44848 3.97445C7.34264 3.97445 6.40917 4.35507 5.64806 5.11632C4.88681 5.87743 4.50619 6.8109 4.50619 7.91674C4.50619 9.02257 4.88681 9.95604 5.64806 10.7172C6.40917 11.4784 7.34264 11.859 8.44848 11.859Z" fill="#7F7F7F"/>
</svg>
